<svg xmlns="http://www.w3.org/2000/svg" role="img" viewBox="0 0 24 24" fill="currentColor">
  <title>Twitter</title>
  <path d="M23.954 4.569c-.885.392-1.83.656-2.825.775 
  1.014-.611 1.794-1.574 2.163-2.723-.951.555-2.005.959-3.127 
  1.184-.897-.959-2.178-1.555-3.594-1.555-2.717 
  0-4.924 2.206-4.924 4.924 0 .39.045.765.127 
  1.124-4.09-.205-7.719-2.165-10.148-5.144-.424.729-.666 
  1.577-.666 2.475 0 1.708.87 3.216 2.188 
  4.099-.807-.026-1.566-.248-2.229-.616v.061c0 
  2.385 1.693 4.374 3.946 4.827-.413.111-.849.171-1.296.171-.317 
  0-.626-.03-.928-.086.627 1.956 2.444 3.379 
  4.6 3.419-1.68 1.319-3.809 2.105-6.102 
  2.105-.396 0-.788-.023-1.175-.067 2.189 1.402 
  4.768 2.22 7.557 2.22 9.054 0 14-7.496 
  14-13.986 0-.21 0-.423-.015-.635.961-.689 
  1.8-1.56 2.46-2.548l-.047-.02z"></path>
</svg>
